<?xml version="1.0" encoding="utf-8"?>
<!-- Generator: Adobe Illustrator 20.1.0, SVG Export Plug-In . SVG Version: 6.00 Build 0)  -->
<svg version="1.1" id="Layer_1" xmlns="http://www.w3.org/2000/svg" xmlns:xlink="http://www.w3.org/1999/xlink" x="0px" y="0px"
	 viewBox="0 0 75.1 75.1" style="enable-background:new 0 0 75.1 75.1;" xml:space="preserve">
<style type="text/css">
	.st0{fill:#FFFFFF;}
</style>
<path class="st0" d="M75.1,75.1H0V0h75.1V75.1z M52.3,12.9l-5,19.1c-1.9-7.3-3.7-13.9-4-14.9c-0.8-2.8-2.6-4.1-5.4-4.1
	c-3,0-5.1,0-5.1,0l0,0l-5,19.1l-5-19.1l-11.3,1.3c0,0,6.2,23.6,7.3,27.8c0.7,2.7,2.2,4.6,4.9,5.3c2.9,0.8,8.8,2.5,8.8,2.5l5-19.1
	c1.5,5.8,2.7,10.1,3.2,11.7c0.7,2.5,2.3,4.1,5.2,4.9c3.9,1.1,8.3,2.5,8.3,2.5l9.4-35.8L52.3,12.9z M43.4,58.2
	c-1.8,0-2.8,0.9-3.2,2.1c-0.4-1.5-1.7-2.1-3.1-2.1c-1.8,0-3.1,1.1-3.4,2.7v-5h-2.4v8.9h2.4v-2.5C34,64.1,35.3,65,37,65
	c1.5,0,2.7-0.7,3.2-2.1c0.4,1.2,1.5,2.1,3.2,2.1c2.4,0,3.5-1.6,3.5-3.4C46.9,59.8,45.8,58.2,43.4,58.2z M38.1,62.2
	c-0.1,0.5-0.4,1-1,1c-0.8,0-1.1-0.6-1.1-1.6c0-0.8,0.2-1.7,1.1-1.7c0.6,0,0.9,0.4,0.9,1h2c0,0.2,0,0.4,0,0.6c0,0.2,0,0.5,0.1,0.7
	H38.1z M43.4,63.2c-0.9,0-1.1-1-1.1-1.7s0.1-1.6,1.1-1.6c0.9,0,1.1,0.9,1.1,1.6C44.5,62.3,44.4,63.2,43.4,63.2z M60.8,63.4
	c-0.8,0-1.2-0.5-1.3-1.3h4.7c0-2.5-1.1-4-3.5-4c-1.7,0-2.9,1-3.3,2.5v-0.3c0-1.1-0.5-2.2-2.2-2.2c-0.9,0-1.5,0.3-1.8,0.7l-0.1,0.1
	c-0.1,0.1-0.2,0.2-0.2,0.3c-0.3-0.7-1-1-1.7-1c-0.9,0-1.6,0.3-2.1,1l0,0v-0.9H47v3.2v3.3h2.4v-3.5c0-0.7,0.2-1.2,0.8-1.2
	c0.8,0,0.8,0.6,0.8,1.2v3.5h2.4v-3.5c0-0.7,0.2-1.2,0.8-1.2c0.8,0,0.8,0.6,0.8,1.2v3.5h2.4v-2.2c0.4,1.5,1.7,2.4,3.4,2.4
	c1.5,0,2.8-0.6,3.3-2h-2.2C61.6,63.3,61.2,63.4,60.8,63.4z M60.8,59.7c0.7,0,1.1,0.5,1.1,1.2h-2.4C59.7,60.1,60.1,59.7,60.8,59.7z
	 M28.2,60.4c-0.4-1.4-1.5-2.2-3.3-2.2c-1.4,0-2.5,0.7-3,1.8l0.5-1.6h-2.5l-0.9,4l0,0l-0.9-4h-2.2l-0.8,4l0,0l-1-4h-2.5l2,6.5H16l1-4
	l0,0l0.9,4h2.5l1.2-3.8c0,0.2,0,0.3,0,0.5c0,2.2,1.5,3.4,3.5,3.4c1.4,0,2.7-0.6,3.2-1.8v1.7h2.4V56h-2.4v4.4H28.2z M25,59.7
	c0.7,0,1.1,0.5,1.1,1.2h-2.4C23.9,60.1,24.3,59.7,25,59.7z M26.1,63c-0.2,0.3-0.6,0.5-1,0.5c-0.8,0-1.2-0.5-1.3-1.3h4.5V63H26.1z"/>
</svg>
